<svg xmlns="http://www.w3.org/2000/svg" xmlns:xlink="http://www.w3.org/1999/xlink" viewBox="716 220 512 512"><defs><style>.a{clip-path:url(#b);}.b{fill:#2f3e4a;}</style><clipPath id="b"><rect x="716" y="220" width="512" height="512"/></clipPath></defs><g id="a" class="a"><path class="b" d="M255.986,503.268c-58.109,0-112.89-10.751-154.359-30.718-45.309-21.5-70.4-51.709-70.4-84.987,0-20.991,9.983-40.7,28.67-57.853a200.724,200.724,0,0,1-39.166-49.661,163.2,163.2,0,0,1,0-159.223c13.055-23.807,32-45.309,55.8-63.74C124.665,20.479,188.405,0,255.986,0c58.109,0,112.89,10.751,154.359,30.718,45.309,21.5,70.4,51.709,70.4,84.987,0,20.991-9.983,40.7-28.67,57.853a199.448,199.448,0,0,1,39.166,49.661,163.2,163.2,0,0,1,0,159.223c-13.055,23.807-32,45.309-55.8,63.74C387.306,482.789,323.566,503.268,255.986,503.268ZM86.267,350.7c-14.335,11.775-22.015,24.319-22.015,36.862,0,19.455,18.687,39.678,51.709,55.293,37.118,17.663,87.035,27.39,140.28,27.39,123.129,0,223.22-75.26,223.22-167.671,0-41.982-20.479-80.38-54.525-109.818-4.608,2.56-9.215,5.12-14.335,7.424C369.131,219.892,314.35,230.9,256.242,230.9c-32,0-62.461-5.376-85.5-15.359-27.646-11.775-42.75-29.182-42.75-48.893s15.1-37.118,42.75-49.149c23.039-9.983,53.5-15.359,85.5-15.359,63.228,0,122.873,17.919,169.719,50.429,14.335-11.775,22.015-24.319,22.015-36.862,0-19.455-18.687-39.678-51.709-55.293-37.118-17.663-87.035-27.39-140.28-27.39-123.129,0-223.22,75.26-223.22,167.671,0,41.982,20.479,80.38,54.525,109.818,4.608-2.56,9.215-5.12,14.335-7.424,41.47-19.711,96.251-30.718,154.359-30.718,32,0,62.461,5.376,85.5,15.359,27.39,11.775,42.75,29.182,42.75,49.149,0,19.711-15.1,37.118-42.75,49.149-23.039,9.983-53.5,15.359-85.5,15.359C192.757,401.13,133.113,383.211,86.267,350.7Zm30.974-18.943c38.142,22.783,86.267,36.35,138.744,36.35,27.134,0,53.5-4.608,72.444-12.8,15.615-6.656,22.783-14.591,22.783-18.943s-7.168-12.031-22.783-18.943c-18.687-8.192-45.309-12.8-72.444-12.8C203.509,305.135,154.359,314.606,117.241,331.758ZM255.986,134.9c-27.134,0-53.5,4.608-72.444,12.8-15.615,6.656-22.783,14.591-22.783,18.943s7.168,12.031,22.783,18.943c18.687,8.192,45.309,12.8,72.444,12.8,52.477,0,101.626-9.471,138.744-26.623C356.588,148.728,308.463,134.9,255.986,134.9Z" transform="translate(716 224)"/></g></svg>