<svg xmlns="http://www.w3.org/2000/svg" xmlns:xlink="http://www.w3.org/1999/xlink" viewBox="283 220 32 32"><defs><style>.a{clip-path:url(#b);}.b{fill:#2f3e4a;}.c{fill:#fff;}</style><clipPath id="b"><rect x="283" y="220" width="32" height="32"/></clipPath></defs><g id="a" class="a"><rect class="c" x="283" y="220" width="32" height="32"/><path class="b" d="M19,3A16,16,0,1,0,35,19,16,16,0,0,0,19,3ZM32.322,18.779a25.065,25.065,0,0,0-5.971-.77,20.4,20.4,0,0,0-3.044.223c-.08.012-.154.037-.234.05q-.5-1.206-1.062-2.382a20.194,20.194,0,0,0,7.338-5.29A13.263,13.263,0,0,1,32.322,18.779ZM27.407,8.663A17.625,17.625,0,0,1,20.794,13.5a53,53,0,0,0-4.9-7.45A13.184,13.184,0,0,1,27.407,8.663ZM13.213,7.007a50.461,50.461,0,0,1,5.028,7.424A40.653,40.653,0,0,1,6.556,15.918c-.174,0-.339-.014-.51-.019A13.366,13.366,0,0,1,13.213,7.007ZM5.667,19c0-.152.018-.3.023-.449.289.012.571.034.866.034a42.893,42.893,0,0,0,12.935-1.748c.329.682.64,1.373.939,2.072a21.5,21.5,0,0,0-11.47,8.838A13.264,13.264,0,0,1,5.667,19Zm5.26,10.587a19.027,19.027,0,0,1,10.492-8.2,49.929,49.929,0,0,1,2.5,10A13.219,13.219,0,0,1,10.927,29.587Zm15.5.483a52.861,52.861,0,0,0-2.361-9.228,18.231,18.231,0,0,1,2.364-.151,22.452,22.452,0,0,1,5.67.779,13.355,13.355,0,0,1-5.673,8.6Z" transform="translate(280 217)"/></g></svg>