<svg xmlns="http://www.w3.org/2000/svg" xmlns:xlink="http://www.w3.org/1999/xlink" viewBox="389 220 32 32"><defs><style>.a{clip-path:url(#b);}.b{fill:#2f3e4a;}.c{fill:#fff;}</style><clipPath id="b"><rect x="389" y="220" width="32" height="32"/></clipPath></defs><g id="a" class="a"><rect class="c" x="389" y="220" width="32" height="32"/><path class="b" d="M25.222,3H12.778A9.778,9.778,0,0,0,3,12.778V25.222A9.778,9.778,0,0,0,12.778,35H25.222A9.778,9.778,0,0,0,35,25.222V12.778A9.778,9.778,0,0,0,25.222,3Zm7.111,22.222a7.119,7.119,0,0,1-7.111,7.111H12.778a7.119,7.119,0,0,1-7.111-7.111V12.778a7.119,7.119,0,0,1,7.111-7.111H25.222a7.119,7.119,0,0,1,7.111,7.111Z" transform="translate(386 217)"/><path class="b" d="M15.5,7.5a8,8,0,1,0,8,8A8,8,0,0,0,15.5,7.5Zm0,13.333A5.333,5.333,0,1,1,20.833,15.5,5.333,5.333,0,0,1,15.5,20.833Z" transform="translate(389.5 220.5)"/><circle class="b" cx="1.778" cy="1.778" r="1.778" transform="translate(411.578 225.867)"/></g></svg>