<svg xmlns="http://www.w3.org/2000/svg" xmlns:xlink="http://www.w3.org/1999/xlink" viewBox="230 220 32 32"><defs><style>.a{clip-path:url(#b);}.b{fill:#2f3e4a;}</style><clipPath id="b"><rect x="230" y="220" width="32" height="32"/></clipPath></defs><g id="a" class="a"><path class="b" d="M89,187.9a16,16,0,1,0,16,16A16,16,0,0,0,89,187.9Zm-.04,21.786H80.1a.443.443,0,0,1-.439-.439V198.513a.443.443,0,0,1,.439-.439h4.15c2.594,0,4.15,1.4,4.15,3.711a3.391,3.391,0,0,1-2.035,3.272l2.953,3.87a.362.362,0,0,1,.12.279A.514.514,0,0,1,88.96,209.686Zm6.224,0H90.915a.443.443,0,0,1-.439-.439V198.513a.443.443,0,0,1,.439-.439h3.95c2.953,0,3.591,1.756,3.591,3.232a3.053,3.053,0,0,1-.678,2.035,2.887,2.887,0,0,1,1.676,2.913C99.454,208.409,97.858,209.686,95.185,209.686Z" transform="translate(157 32.1)"/></g></svg>