<svg xmlns="http://www.w3.org/2000/svg" xmlns:xlink="http://www.w3.org/1999/xlink" viewBox="544 220 200 200"><defs><style>.a{clip-path:url(#b);}.b{fill:#eaeef0;}</style><clipPath id="b"><rect x="544" y="220" width="200" height="200"/></clipPath></defs><g id="a" class="a"><path class="b" d="M-344-20H-544V-139.244a63.831,63.831,0,0,0,8.1,30.644,78.409,78.409,0,0,0,15.3,19.4c-7.327,6.724-11.2,14.538-11.2,22.6,0,12.994,9.767,24.784,27.5,33.2,16.071,7.738,37.486,12,60.3,12,26.3,0,51.194-7.92,70.1-22.3a80.962,80.962,0,0,0,21.8-24.9A63.787,63.787,0,0,0-344-99.7h0a63.762,63.762,0,0,0-8.1-31.1,77.824,77.824,0,0,0-15.3-19.4c7.327-6.724,11.2-14.539,11.2-22.6,0-12.994-9.766-24.784-27.5-33.2-16.071-7.738-37.486-12-60.3-12-26.3,0-51.194,7.92-70.1,22.3a80.938,80.938,0,0,0-21.8,24.9,63.806,63.806,0,0,0-8.1,30.644L-544-220h200V-99.7h0Zm-99.9-14.3c-20.839,0-40.3-3.8-54.8-10.7-12.838-6.071-20.2-13.944-20.2-21.6,0-4.867,2.894-9.712,8.6-14.4,18.255,12.669,41.8,19.7,66.3,19.8,12.61,0,24.472-2.131,33.4-6,10.769-4.686,16.7-11.5,16.7-19.2,0-7.752-5.931-14.57-16.7-19.2-8.928-3.869-20.79-6-33.4-6-22.6,0-44.019,4.262-60.3,12-2.009.9-3.835,1.919-5.6,2.9-13.736-11.877-21.3-27.113-21.3-42.9,0-36.117,39.118-65.5,87.2-65.5,20.838,0,40.3,3.8,54.8,10.7,12.837,6.071,20.2,13.944,20.2,21.6,0,4.868-2.894,9.713-8.6,14.4-18.305-12.7-41.851-19.7-66.3-19.7-12.61,0-24.472,2.131-33.4,6-10.769,4.687-16.7,11.505-16.7,19.2,0,7.73,5.931,14.513,16.7,19.1,8.928,3.869,20.79,6,33.4,6,22.6,0,44.019-4.262,60.3-12,2.008-.9,3.834-1.919,5.6-2.9,13.736,11.877,21.3,27.113,21.3,42.9C-356.7-63.683-395.818-34.3-443.9-34.3Zm-.1-39.9c-19.906,0-38.648-4.91-54.2-14.2,14.36-6.636,33.609-10.4,54.2-10.6,10.736,0,21.051,1.823,28.3,5,6.115,2.707,8.9,5.733,8.9,7.4,0,1.792-3.057,4.909-8.9,7.4C-423.048-76.022-433.363-74.2-444-74.2Zm0-66.3c-10.737,0-21.052-1.823-28.3-5-6.115-2.707-8.9-5.733-8.9-7.4,0-1.792,3.057-4.909,8.9-7.4,7.348-3.178,17.663-5,28.3-5,19.861,0,38.6,4.979,54.2,14.4C-404.315-144.193-423.563-140.5-444-140.5Z" transform="translate(1088 440)"/></g></svg>