<svg xmlns="http://www.w3.org/2000/svg" xmlns:xlink="http://www.w3.org/1999/xlink" viewBox="336 220 32 32"><defs><style>.a{clip-path:url(#b);}.b{fill:#2f3e4a;}</style><clipPath id="b"><rect x="336" y="220" width="32" height="32"/></clipPath></defs><g id="a" class="a"><g transform="translate(336 220)"><circle class="b" cx="6.419" cy="6.419" r="6.419" transform="translate(15.703 3.212)"/><path class="b" d="M18.854,9.234c-.334,0-.936.694-.936,1.07A13.641,13.641,0,0,1,4.277,23.945a13.677,13.677,0,0,1-2.062-.172A18.323,18.323,0,0,0,30.757,8.565C30.757,7.385,23.242,9.234,18.854,9.234Z" transform="translate(-2.215 1.735)"/><path class="b" d="M18.168,11.27A18.271,18.271,0,0,1,4.215,4.805,6.319,6.319,0,0,0,3.35,7.96a6.386,6.386,0,0,0,6.386,6.386c3.41,0,9.466.036,9.865-3.148C19.126,11.234,18.652,11.27,18.168,11.27Z" transform="translate(-1.529 -0.301)"/><path class="b" d="M6.393,10.563a6.314,6.314,0,0,1-3.033-.8c0,.033-.01.064-.01.1a6.386,6.386,0,0,0,6.386,6.386c3.527,0,8.465-2.558,8.465-6.085C18.2,7.739,9.886,10.563,6.393,10.563Z" transform="translate(-1.529 2.345)"/><path class="b" d="M9.558,14.2a6.275,6.275,0,0,1-4.861.839,6.365,6.365,0,0,0,6.1,4.583,8.439,8.439,0,0,0,7.5-7.489C18.289,9.093,11.327,13.063,9.558,14.2Z" transform="translate(-0.714 3.451)"/><path class="b" d="M18.277,6.015c-2.122,0-2.625,2.665.12,2.665a6.365,6.365,0,0,0,6.025-4.353,12.035,12.035,0,0,1-6.145,1.688Z" transform="translate(6.43 -0.59)"/><path class="b" d="M22.249,7.007a12.072,12.072,0,0,1-4.714-.952c-4.346-1.838-6.989,5.365-.3,5.365A12.091,12.091,0,0,0,27.427,5.832a12.04,12.04,0,0,1-5.178,1.175Z" transform="translate(4.414 0.273)"/></g></g></svg>